<svg width="793" height="639" viewBox="0 0 793 639" fill="none" xmlns="http://www.w3.org/2000/svg">
<path d="M387.869 384.444H321.809V229.644H253.02V384.444H77.2263L258.728 0H181.551L0 384.444V449.014H253.02V550.312H321.809V449.014H389.159C385.933 437.649 384.345 425.985 384.345 414.322C384.345 404.297 385.536 394.271 387.869 384.444Z" fill="black"/>
<path d="M672.951 555.374C652.85 567.881 629.126 574.135 601.879 574.135C561.38 574.135 530.162 560.734 508.274 533.983C493.633 516.166 483.905 493.434 479.041 465.839C455.318 473.086 430.006 473.284 406.183 466.485C410.004 492.144 417.399 515.471 428.368 536.465C445.193 568.725 468.718 593.789 498.894 611.755C529.07 629.722 564.457 638.705 604.956 638.705C645.455 638.705 681.041 628.729 713.301 608.728C745.512 588.726 769.682 560.486 785.713 524.057L720.349 501.524C708.884 524.95 693.101 542.917 672.951 555.374Z" fill="black"/>
<path d="M773.653 313.471C759.012 278.084 737.124 250.837 707.941 231.729C678.758 212.62 643.42 203.042 601.879 203.042C560.337 203.042 527.035 212.025 497.355 229.991C467.676 247.958 444.548 273.419 428.02 306.424C419.583 323.199 413.33 341.463 409.21 361.316C419.782 358.537 430.651 357.196 441.47 357.196C454.871 357.196 468.321 359.231 481.225 363.45C486.536 339.925 495.569 320.32 508.274 304.687C530.162 277.687 562.124 264.187 604.162 264.187C643.42 264.187 672.951 276.744 692.853 301.858C708.537 321.66 718.264 349.504 722.036 385.337H495.32C497.554 394.867 498.646 404.594 498.646 414.322C498.646 422.908 497.802 431.494 496.065 439.981H792.612C794.647 391.045 788.294 348.908 773.653 313.471Z" fill="black"/>
</svg>
